<svg xmlns="http://www.w3.org/2000/svg" xmlns:xlink="http://www.w3.org/1999/xlink" width="500" zoomAndPan="magnify" viewBox="0 0 375 374.999991" height="500" preserveAspectRatio="xMidYMid meet" version="1.0"><defs><g/></defs><g fill="#000000" fill-opacity="1"><g transform="translate(123.398434, 180.169647)"><g><path d="M 3.296875 0 L 3.296875 -26.265625 L 5.890625 -26.265625 L 5.890625 0 Z M 3.296875 0 "/></g></g></g><g fill="#000000" fill-opacity="1"><g transform="translate(132.573459, 180.169647)"><g><path d="M 8.515625 0 L 0.703125 -19.28125 L 3.328125 -19.28125 L 9.921875 -2.515625 L 16.53125 -19.28125 L 19.015625 -19.28125 L 11.21875 0 Z M 8.515625 0 "/></g></g></g><g fill="#000000" fill-opacity="1"><g transform="translate(152.29236, 180.169647)"><g><path d="M 18.984375 0 L 16.46875 0 L 16.46875 -10.765625 C 16.46875 -13.035156 16.132812 -14.691406 15.46875 -15.734375 C 14.800781 -16.785156 13.753906 -17.3125 12.328125 -17.3125 C 11.335938 -17.3125 10.359375 -17.070312 9.390625 -16.59375 C 8.429688 -16.113281 7.585938 -15.457031 6.859375 -14.625 C 6.128906 -13.800781 5.609375 -12.859375 5.296875 -11.796875 L 5.296875 0 L 2.78125 0 L 2.78125 -19.28125 L 5.0625 -19.28125 L 5.0625 -14.90625 C 5.582031 -15.84375 6.257812 -16.660156 7.09375 -17.359375 C 7.9375 -18.066406 8.890625 -18.617188 9.953125 -19.015625 C 11.015625 -19.410156 12.113281 -19.609375 13.25 -19.609375 C 14.3125 -19.609375 15.210938 -19.410156 15.953125 -19.015625 C 16.691406 -18.617188 17.28125 -18.054688 17.71875 -17.328125 C 18.164062 -16.609375 18.488281 -15.734375 18.6875 -14.703125 C 18.882812 -13.679688 18.984375 -12.539062 18.984375 -11.28125 Z M 18.984375 0 "/></g></g></g><g fill="#000000" fill-opacity="1"><g transform="translate(173.861062, 180.169647)"><g><path d="M 1.21875 -5.546875 C 1.21875 -6.753906 1.5625 -7.796875 2.25 -8.671875 C 2.945312 -9.546875 3.90625 -10.222656 5.125 -10.703125 C 6.34375 -11.191406 7.753906 -11.4375 9.359375 -11.4375 C 10.296875 -11.4375 11.269531 -11.359375 12.28125 -11.203125 C 13.289062 -11.054688 14.191406 -10.835938 14.984375 -10.546875 L 14.984375 -12.171875 C 14.984375 -13.796875 14.5 -15.085938 13.53125 -16.046875 C 12.570312 -17.015625 11.242188 -17.5 9.546875 -17.5 C 8.503906 -17.5 7.484375 -17.304688 6.484375 -16.921875 C 5.492188 -16.546875 4.453125 -15.988281 3.359375 -15.25 L 2.40625 -17.015625 C 3.664062 -17.878906 4.898438 -18.523438 6.109375 -18.953125 C 7.316406 -19.390625 8.550781 -19.609375 9.8125 -19.609375 C 12.175781 -19.609375 14.046875 -18.929688 15.421875 -17.578125 C 16.804688 -16.222656 17.5 -14.347656 17.5 -11.953125 L 17.5 -3.03125 C 17.5 -2.6875 17.570312 -2.429688 17.71875 -2.265625 C 17.863281 -2.109375 18.097656 -2.019531 18.421875 -2 L 18.421875 0 C 18.148438 0.0195312 17.914062 0.0390625 17.71875 0.0625 C 17.519531 0.09375 17.375 0.0976562 17.28125 0.078125 C 16.664062 0.046875 16.195312 -0.148438 15.875 -0.515625 C 15.550781 -0.890625 15.378906 -1.285156 15.359375 -1.703125 L 15.3125 -3.109375 C 14.445312 -1.992188 13.320312 -1.132812 11.9375 -0.53125 C 10.5625 0.0703125 9.160156 0.375 7.734375 0.375 C 6.503906 0.375 5.390625 0.109375 4.390625 -0.421875 C 3.390625 -0.953125 2.609375 -1.664062 2.046875 -2.5625 C 1.492188 -3.46875 1.21875 -4.460938 1.21875 -5.546875 Z M 14.140625 -4.0625 C 14.410156 -4.414062 14.617188 -4.75 14.765625 -5.0625 C 14.910156 -5.382812 14.984375 -5.671875 14.984375 -5.921875 L 14.984375 -8.734375 C 14.148438 -9.054688 13.28125 -9.300781 12.375 -9.46875 C 11.476562 -9.644531 10.570312 -9.734375 9.65625 -9.734375 C 7.851562 -9.734375 6.394531 -9.375 5.28125 -8.65625 C 4.175781 -7.9375 3.625 -6.960938 3.625 -5.734375 C 3.625 -5.015625 3.804688 -4.34375 4.171875 -3.71875 C 4.546875 -3.09375 5.085938 -2.570312 5.796875 -2.15625 C 6.515625 -1.75 7.359375 -1.546875 8.328125 -1.546875 C 9.535156 -1.546875 10.660156 -1.78125 11.703125 -2.25 C 12.753906 -2.71875 13.566406 -3.320312 14.140625 -4.0625 Z M 14.140625 -4.0625 "/></g></g></g><g fill="#000000" fill-opacity="1"><g transform="translate(194.023913, 180.169647)"><g><path d="M 12.390625 -17.0625 C 10.710938 -17.007812 9.238281 -16.535156 7.96875 -15.640625 C 6.695312 -14.753906 5.804688 -13.535156 5.296875 -11.984375 L 5.296875 0 L 2.78125 0 L 2.78125 -19.28125 L 5.140625 -19.28125 L 5.140625 -14.65625 C 5.804688 -16.007812 6.6875 -17.101562 7.78125 -17.9375 C 8.882812 -18.78125 10.050781 -19.25 11.28125 -19.34375 C 11.53125 -19.375 11.742188 -19.390625 11.921875 -19.390625 C 12.109375 -19.390625 12.265625 -19.375 12.390625 -19.34375 Z M 12.390625 -17.0625 "/></g></g></g><g fill="#000000" fill-opacity="1"><g transform="translate(207.009535, 180.169647)"><g><path d="M 18.984375 0 L 16.46875 0 L 16.46875 -10.765625 C 16.46875 -13.035156 16.132812 -14.691406 15.46875 -15.734375 C 14.800781 -16.785156 13.753906 -17.3125 12.328125 -17.3125 C 11.335938 -17.3125 10.359375 -17.070312 9.390625 -16.59375 C 8.429688 -16.113281 7.585938 -15.457031 6.859375 -14.625 C 6.128906 -13.800781 5.609375 -12.859375 5.296875 -11.796875 L 5.296875 0 L 2.78125 0 L 2.78125 -19.28125 L 5.0625 -19.28125 L 5.0625 -14.90625 C 5.582031 -15.84375 6.257812 -16.660156 7.09375 -17.359375 C 7.9375 -18.066406 8.890625 -18.617188 9.953125 -19.015625 C 11.015625 -19.410156 12.113281 -19.609375 13.25 -19.609375 C 14.3125 -19.609375 15.210938 -19.410156 15.953125 -19.015625 C 16.691406 -18.617188 17.28125 -18.054688 17.71875 -17.328125 C 18.164062 -16.609375 18.488281 -15.734375 18.6875 -14.703125 C 18.882812 -13.679688 18.984375 -12.539062 18.984375 -11.28125 Z M 18.984375 0 "/></g></g></g><g fill="#000000" fill-opacity="1"><g transform="translate(228.578236, 180.169647)"><g><path d="M 1.484375 -9.578125 C 1.484375 -11.410156 1.859375 -13.082031 2.609375 -14.59375 C 3.359375 -16.113281 4.398438 -17.328125 5.734375 -18.234375 C 7.066406 -19.148438 8.582031 -19.609375 10.28125 -19.609375 C 11.882812 -19.609375 13.320312 -19.179688 14.59375 -18.328125 C 15.863281 -17.484375 16.859375 -16.457031 17.578125 -15.25 L 17.578125 -27.015625 L 20.09375 -27.015625 L 20.09375 -3.03125 C 20.09375 -2.6875 20.164062 -2.429688 20.3125 -2.265625 C 20.457031 -2.109375 20.679688 -2.019531 20.984375 -2 L 20.984375 0 C 20.484375 0.0703125 20.097656 0.0976562 19.828125 0.078125 C 19.316406 0.046875 18.863281 -0.160156 18.46875 -0.546875 C 18.070312 -0.941406 17.875 -1.375 17.875 -1.84375 L 17.875 -3.734375 C 17.101562 -2.472656 16.0625 -1.472656 14.75 -0.734375 C 13.445312 0.00390625 12.09375 0.375 10.6875 0.375 C 9.351562 0.375 8.125 0.101562 7 -0.4375 C 5.882812 -0.988281 4.910156 -1.726562 4.078125 -2.65625 C 3.253906 -3.59375 2.613281 -4.660156 2.15625 -5.859375 C 1.707031 -7.054688 1.484375 -8.296875 1.484375 -9.578125 Z M 17.578125 -6.625 L 17.578125 -12.578125 C 17.253906 -13.460938 16.734375 -14.269531 16.015625 -15 C 15.304688 -15.726562 14.5 -16.304688 13.59375 -16.734375 C 12.695312 -17.171875 11.804688 -17.390625 10.921875 -17.390625 C 9.878906 -17.390625 8.9375 -17.171875 8.09375 -16.734375 C 7.257812 -16.304688 6.539062 -15.722656 5.9375 -14.984375 C 5.332031 -14.242188 4.867188 -13.40625 4.546875 -12.46875 C 4.222656 -11.53125 4.0625 -10.566406 4.0625 -9.578125 C 4.0625 -8.546875 4.238281 -7.5625 4.59375 -6.625 C 4.957031 -5.6875 5.472656 -4.851562 6.140625 -4.125 C 6.804688 -3.394531 7.570312 -2.832031 8.4375 -2.4375 C 9.300781 -2.039062 10.238281 -1.84375 11.25 -1.84375 C 11.882812 -1.84375 12.546875 -1.96875 13.234375 -2.21875 C 13.929688 -2.46875 14.59375 -2.804688 15.21875 -3.234375 C 15.851562 -3.671875 16.378906 -4.179688 16.796875 -4.765625 C 17.210938 -5.359375 17.472656 -5.976562 17.578125 -6.625 Z M 17.578125 -6.625 "/></g></g></g><g fill="#cb6ce6" fill-opacity="1"><g transform="translate(130.11647, 203.369619)"><g><path d="M 7.734375 0 L 3.859375 0 L 0.265625 -13.734375 L 2.984375 -13.734375 L 5.8125 -2.34375 L 8.375 -13.734375 L 11.65625 -13.734375 L 14.21875 -2.328125 L 17.046875 -13.734375 L 19.765625 -13.734375 L 16.15625 0 L 12.296875 0 L 10.015625 -10.640625 Z M 7.734375 0 "/></g></g></g><g fill="#cb6ce6" fill-opacity="1"><g transform="translate(150.654416, 203.369619)"><g><path d="M 5.828125 0.203125 C 4.796875 0.203125 3.894531 -0.0195312 3.125 -0.46875 C 2.351562 -0.925781 1.753906 -1.539062 1.328125 -2.3125 C 0.898438 -3.09375 0.6875 -3.984375 0.6875 -4.984375 C 0.6875 -5.640625 0.785156 -6.285156 0.984375 -6.921875 C 1.191406 -7.566406 1.503906 -8.140625 1.921875 -8.640625 C 2.347656 -9.148438 2.878906 -9.554688 3.515625 -9.859375 C 4.148438 -10.160156 4.898438 -10.3125 5.765625 -10.3125 C 6.410156 -10.3125 7.035156 -10.207031 7.640625 -10 C 8.242188 -9.800781 8.785156 -9.488281 9.265625 -9.0625 C 9.742188 -8.632812 10.125 -8.085938 10.40625 -7.421875 C 10.6875 -6.765625 10.828125 -5.984375 10.828125 -5.078125 L 10.828125 -4.546875 L 3.203125 -4.546875 C 3.222656 -4.335938 3.269531 -4.125 3.34375 -3.90625 C 3.414062 -3.695312 3.492188 -3.515625 3.578125 -3.359375 C 3.816406 -2.890625 4.132812 -2.523438 4.53125 -2.265625 C 4.9375 -2.015625 5.398438 -1.890625 5.921875 -1.890625 C 6.492188 -1.890625 6.972656 -2.039062 7.359375 -2.34375 C 7.753906 -2.644531 8.03125 -3 8.1875 -3.40625 L 10.671875 -3.40625 C 10.484375 -2.757812 10.175781 -2.160156 9.75 -1.609375 C 9.332031 -1.066406 8.800781 -0.628906 8.15625 -0.296875 C 7.507812 0.0351562 6.734375 0.203125 5.828125 0.203125 Z M 3.3125 -6.375 L 8.359375 -6.375 C 8.335938 -6.5 8.300781 -6.644531 8.25 -6.8125 C 8.195312 -6.988281 8.101562 -7.15625 7.96875 -7.3125 C 7.738281 -7.664062 7.4375 -7.929688 7.0625 -8.109375 C 6.6875 -8.296875 6.273438 -8.390625 5.828125 -8.390625 C 5.390625 -8.390625 4.984375 -8.296875 4.609375 -8.109375 C 4.242188 -7.929688 3.941406 -7.664062 3.703125 -7.3125 C 3.578125 -7.15625 3.484375 -6.988281 3.421875 -6.8125 C 3.367188 -6.644531 3.332031 -6.5 3.3125 -6.375 Z M 3.3125 -6.375 "/></g></g></g><g fill="#cb6ce6" fill-opacity="1"><g transform="translate(162.696383, 203.369619)"><g><path d="M 6.40625 0.203125 C 5.820312 0.203125 5.300781 0.0976562 4.84375 -0.109375 C 4.382812 -0.328125 3.953125 -0.71875 3.546875 -1.28125 L 3.546875 0 L 1.109375 0 L 1.109375 -13.734375 L 3.546875 -13.734375 L 3.546875 -8.8125 C 3.953125 -9.394531 4.382812 -9.789062 4.84375 -10 C 5.300781 -10.207031 5.820312 -10.3125 6.40625 -10.3125 C 7.289062 -10.3125 8.066406 -10.085938 8.734375 -9.640625 C 9.398438 -9.203125 9.921875 -8.585938 10.296875 -7.796875 C 10.671875 -7.003906 10.859375 -6.09375 10.859375 -5.0625 C 10.859375 -4.03125 10.671875 -3.117188 10.296875 -2.328125 C 9.921875 -1.535156 9.398438 -0.914062 8.734375 -0.46875 C 8.066406 -0.0195312 7.289062 0.203125 6.40625 0.203125 Z M 5.84375 -1.890625 C 6.625 -1.890625 7.242188 -2.1875 7.703125 -2.78125 C 8.171875 -3.382812 8.40625 -4.144531 8.40625 -5.0625 C 8.40625 -5.976562 8.171875 -6.734375 7.703125 -7.328125 C 7.242188 -7.921875 6.625 -8.21875 5.84375 -8.21875 C 5.082031 -8.21875 4.457031 -7.925781 3.96875 -7.34375 C 3.476562 -6.757812 3.234375 -6 3.234375 -5.0625 C 3.234375 -4.125 3.476562 -3.359375 3.96875 -2.765625 C 4.457031 -2.179688 5.082031 -1.890625 5.84375 -1.890625 Z M 5.84375 -1.890625 "/></g></g></g><g fill="#cb6ce6" fill-opacity="1"><g transform="translate(174.792355, 203.369619)"><g/></g></g><g fill="#cb6ce6" fill-opacity="1"><g transform="translate(180.13834, 203.369619)"><g><path d="M 5.21875 0 L 1.21875 0 L 1.21875 -13.734375 L 5.21875 -13.734375 C 7.550781 -13.734375 9.332031 -13.140625 10.5625 -11.953125 C 11.789062 -10.765625 12.40625 -9.066406 12.40625 -6.859375 C 12.40625 -4.660156 11.785156 -2.96875 10.546875 -1.78125 C 9.304688 -0.59375 7.53125 0 5.21875 0 Z M 3.8125 -11.40625 L 3.8125 -2.328125 L 5.1875 -2.328125 C 6.09375 -2.328125 6.894531 -2.46875 7.59375 -2.75 C 8.289062 -3.03125 8.832031 -3.503906 9.21875 -4.171875 C 9.613281 -4.835938 9.8125 -5.734375 9.8125 -6.859375 C 9.8125 -7.921875 9.617188 -8.785156 9.234375 -9.453125 C 8.847656 -10.117188 8.3125 -10.609375 7.625 -10.921875 C 6.9375 -11.242188 6.128906 -11.40625 5.203125 -11.40625 Z M 3.8125 -11.40625 "/></g></g></g><g fill="#cb6ce6" fill-opacity="1"><g transform="translate(193.764303, 203.369619)"><g><path d="M 5.828125 0.203125 C 4.796875 0.203125 3.894531 -0.0195312 3.125 -0.46875 C 2.351562 -0.925781 1.753906 -1.539062 1.328125 -2.3125 C 0.898438 -3.09375 0.6875 -3.984375 0.6875 -4.984375 C 0.6875 -5.640625 0.785156 -6.285156 0.984375 -6.921875 C 1.191406 -7.566406 1.503906 -8.140625 1.921875 -8.640625 C 2.347656 -9.148438 2.878906 -9.554688 3.515625 -9.859375 C 4.148438 -10.160156 4.898438 -10.3125 5.765625 -10.3125 C 6.410156 -10.3125 7.035156 -10.207031 7.640625 -10 C 8.242188 -9.800781 8.785156 -9.488281 9.265625 -9.0625 C 9.742188 -8.632812 10.125 -8.085938 10.40625 -7.421875 C 10.6875 -6.765625 10.828125 -5.984375 10.828125 -5.078125 L 10.828125 -4.546875 L 3.203125 -4.546875 C 3.222656 -4.335938 3.269531 -4.125 3.34375 -3.90625 C 3.414062 -3.695312 3.492188 -3.515625 3.578125 -3.359375 C 3.816406 -2.890625 4.132812 -2.523438 4.53125 -2.265625 C 4.9375 -2.015625 5.398438 -1.890625 5.921875 -1.890625 C 6.492188 -1.890625 6.972656 -2.039062 7.359375 -2.34375 C 7.753906 -2.644531 8.03125 -3 8.1875 -3.40625 L 10.671875 -3.40625 C 10.484375 -2.757812 10.175781 -2.160156 9.75 -1.609375 C 9.332031 -1.066406 8.800781 -0.628906 8.15625 -0.296875 C 7.507812 0.0351562 6.734375 0.203125 5.828125 0.203125 Z M 3.3125 -6.375 L 8.359375 -6.375 C 8.335938 -6.5 8.300781 -6.644531 8.25 -6.8125 C 8.195312 -6.988281 8.101562 -7.15625 7.96875 -7.3125 C 7.738281 -7.664062 7.4375 -7.929688 7.0625 -8.109375 C 6.6875 -8.296875 6.273438 -8.390625 5.828125 -8.390625 C 5.390625 -8.390625 4.984375 -8.296875 4.609375 -8.109375 C 4.242188 -7.929688 3.941406 -7.664062 3.703125 -7.3125 C 3.578125 -7.15625 3.484375 -6.988281 3.421875 -6.8125 C 3.367188 -6.644531 3.332031 -6.5 3.3125 -6.375 Z M 3.3125 -6.375 "/></g></g></g><g fill="#cb6ce6" fill-opacity="1"><g transform="translate(205.806268, 203.369619)"><g><path d="M 5.46875 0.203125 C 4.695312 0.203125 3.960938 0.078125 3.265625 -0.171875 C 2.578125 -0.421875 1.992188 -0.8125 1.515625 -1.34375 C 1.046875 -1.875 0.75 -2.5625 0.625 -3.40625 L 3.03125 -3.40625 C 3.1875 -2.851562 3.472656 -2.429688 3.890625 -2.140625 C 4.304688 -1.847656 4.828125 -1.703125 5.453125 -1.703125 C 5.972656 -1.703125 6.398438 -1.804688 6.734375 -2.015625 C 7.066406 -2.222656 7.234375 -2.507812 7.234375 -2.875 C 7.234375 -3.175781 7.117188 -3.414062 6.890625 -3.59375 C 6.671875 -3.769531 6.378906 -3.90625 6.015625 -4 C 5.660156 -4.09375 5.269531 -4.179688 4.84375 -4.265625 C 4.40625 -4.347656 3.960938 -4.445312 3.515625 -4.5625 C 3.066406 -4.6875 2.65625 -4.851562 2.28125 -5.0625 C 1.914062 -5.269531 1.617188 -5.550781 1.390625 -5.90625 C 1.160156 -6.257812 1.046875 -6.722656 1.046875 -7.296875 C 1.046875 -8.003906 1.222656 -8.578125 1.578125 -9.015625 C 1.941406 -9.460938 2.421875 -9.789062 3.015625 -10 C 3.609375 -10.207031 4.253906 -10.3125 4.953125 -10.3125 C 6.128906 -10.3125 7.113281 -10.015625 7.90625 -9.421875 C 8.695312 -8.828125 9.179688 -7.976562 9.359375 -6.875 L 7.078125 -6.875 C 6.929688 -7.425781 6.660156 -7.816406 6.265625 -8.046875 C 5.867188 -8.285156 5.425781 -8.40625 4.9375 -8.40625 C 4.457031 -8.40625 4.070312 -8.3125 3.78125 -8.125 C 3.5 -7.9375 3.359375 -7.6875 3.359375 -7.375 C 3.359375 -7.101562 3.46875 -6.890625 3.6875 -6.734375 C 3.90625 -6.578125 4.191406 -6.457031 4.546875 -6.375 C 4.898438 -6.289062 5.28125 -6.207031 5.6875 -6.125 C 6.132812 -6.039062 6.585938 -5.941406 7.046875 -5.828125 C 7.503906 -5.710938 7.925781 -5.546875 8.3125 -5.328125 C 8.707031 -5.117188 9.023438 -4.832031 9.265625 -4.46875 C 9.503906 -4.101562 9.625 -3.632812 9.625 -3.0625 C 9.625 -2.070312 9.257812 -1.28125 8.53125 -0.6875 C 7.800781 -0.09375 6.78125 0.203125 5.46875 0.203125 Z M 5.46875 0.203125 "/></g></g></g><g fill="#cb6ce6" fill-opacity="1"><g transform="translate(216.696236, 203.369619)"><g><path d="M 2.328125 -11.21875 C 1.910156 -11.21875 1.554688 -11.34375 1.265625 -11.59375 C 0.972656 -11.84375 0.828125 -12.175781 0.828125 -12.59375 C 0.828125 -13.007812 0.972656 -13.34375 1.265625 -13.59375 C 1.554688 -13.851562 1.910156 -13.984375 2.328125 -13.984375 C 2.734375 -13.984375 3.082031 -13.851562 3.375 -13.59375 C 3.664062 -13.34375 3.8125 -13.007812 3.8125 -12.59375 C 3.8125 -12.175781 3.664062 -11.84375 3.375 -11.59375 C 3.082031 -11.34375 2.734375 -11.21875 2.328125 -11.21875 Z M 3.53125 0 L 1.09375 0 L 1.09375 -10.09375 L 3.53125 -10.09375 Z M 3.53125 0 "/></g></g></g><g fill="#cb6ce6" fill-opacity="1"><g transform="translate(221.862225, 203.369619)"><g><path d="M 5.734375 3.828125 C 5.054688 3.828125 4.382812 3.734375 3.71875 3.546875 C 3.050781 3.367188 2.476562 3.039062 2 2.5625 C 1.519531 2.082031 1.207031 1.410156 1.0625 0.546875 L 3.515625 0.546875 C 3.671875 1.035156 3.929688 1.390625 4.296875 1.609375 C 4.660156 1.828125 5.132812 1.9375 5.71875 1.9375 C 6.550781 1.9375 7.148438 1.75 7.515625 1.375 C 7.878906 1 8.0625 0.515625 8.0625 -0.078125 L 8.0625 -1.5 C 7.65625 -0.914062 7.222656 -0.519531 6.765625 -0.3125 C 6.304688 -0.113281 5.78125 -0.015625 5.1875 -0.015625 C 4.3125 -0.015625 3.539062 -0.234375 2.875 -0.671875 C 2.207031 -1.117188 1.6875 -1.726562 1.3125 -2.5 C 0.9375 -3.269531 0.75 -4.144531 0.75 -5.125 C 0.75 -6.132812 0.9375 -7.03125 1.3125 -7.8125 C 1.6875 -8.59375 2.207031 -9.203125 2.875 -9.640625 C 3.539062 -10.085938 4.3125 -10.3125 5.1875 -10.3125 C 5.78125 -10.3125 6.304688 -10.203125 6.765625 -9.984375 C 7.222656 -9.773438 7.65625 -9.382812 8.0625 -8.8125 L 8.0625 -10.09375 L 10.5 -10.09375 L 10.5 -0.640625 C 10.5 0.503906 10.285156 1.40625 9.859375 2.0625 C 9.441406 2.71875 8.875 3.175781 8.15625 3.4375 C 7.4375 3.695312 6.628906 3.828125 5.734375 3.828125 Z M 5.765625 -2.109375 C 6.273438 -2.109375 6.722656 -2.238281 7.109375 -2.5 C 7.503906 -2.757812 7.8125 -3.117188 8.03125 -3.578125 C 8.257812 -4.046875 8.375 -4.578125 8.375 -5.171875 C 8.375 -5.753906 8.257812 -6.273438 8.03125 -6.734375 C 7.8125 -7.203125 7.503906 -7.566406 7.109375 -7.828125 C 6.722656 -8.085938 6.273438 -8.21875 5.765625 -8.21875 C 5.242188 -8.21875 4.789062 -8.082031 4.40625 -7.8125 C 4.019531 -7.550781 3.722656 -7.1875 3.515625 -6.71875 C 3.304688 -6.257812 3.203125 -5.742188 3.203125 -5.171875 C 3.203125 -4.585938 3.304688 -4.066406 3.515625 -3.609375 C 3.722656 -3.148438 4.019531 -2.785156 4.40625 -2.515625 C 4.789062 -2.242188 5.242188 -2.109375 5.765625 -2.109375 Z M 5.765625 -2.109375 "/></g></g></g><g fill="#cb6ce6" fill-opacity="1"><g transform="translate(233.976184, 203.369619)"><g><path d="M 3.53125 0 L 1.09375 0 L 1.09375 -10.09375 L 3.53125 -10.09375 L 3.53125 -8.8125 C 3.9375 -9.382812 4.359375 -9.773438 4.796875 -9.984375 C 5.242188 -10.203125 5.738281 -10.3125 6.28125 -10.3125 C 7.207031 -10.3125 7.90625 -10.144531 8.375 -9.8125 C 8.851562 -9.488281 9.207031 -9.09375 9.4375 -8.625 C 9.632812 -8.175781 9.75 -7.71875 9.78125 -7.25 C 9.820312 -6.789062 9.84375 -6.3125 9.84375 -5.8125 L 9.84375 0 L 7.4375 0 L 7.4375 -5.84375 C 7.4375 -6.363281 7.394531 -6.78125 7.3125 -7.09375 C 7.226562 -7.414062 7.101562 -7.671875 6.9375 -7.859375 C 6.644531 -8.160156 6.21875 -8.3125 5.65625 -8.3125 C 4.96875 -8.3125 4.457031 -8.109375 4.125 -7.703125 C 3.914062 -7.460938 3.765625 -7.144531 3.671875 -6.75 C 3.578125 -6.351562 3.53125 -5.816406 3.53125 -5.140625 Z M 3.53125 0 "/></g></g></g></svg>